PathFileType	4	(X/Y/Z)	C:\Users\86182\Documents\cortex\Trimmed_M4_L10.trc
DataRate	CameraRate	NumFrames	NumMarkers	Units	OrigDataRate	OrigDataStartFrame	OrigNumFrames
100.00	100.00	       70	2	mm	100.00	541	       901
Frame#	Time	gripper			box			
		X1	Y1	Z1	X2	Y2	Z2	

541	5.400	274.50140	150.39458	292.48743	277.10428	147.35501	157.21175	
542	5.410	274.50061	150.39449	292.48749	277.10287	147.35722	157.21236	
543	5.420	274.50043	150.39429	292.48746	277.10162	147.35912	157.21286	
544	5.430	274.50113	150.39397	292.48724	277.10223	147.36011	157.21281	
545	5.440	274.50311	150.39352	292.48682	277.10648	147.35957	157.21179	
546	5.450	274.50665	150.39291	292.48611	277.11472	147.35744	157.20976	
547	5.460	274.51196	150.39215	292.48511	277.12592	147.35411	157.20700	
548	5.470	274.51898	150.39127	292.48386	277.13837	147.35022	157.20392	
549	5.480	274.52710	150.39038	292.48245	277.15054	147.34628	157.20090	
550	5.490	274.53510	150.38966	292.48114	277.16141	147.34264	157.19823	
551	5.500	274.54163	150.38927	292.48010	277.17004	147.33963	157.19609	
552	5.510	274.54568	150.38918	292.47952	277.17569	147.33760	157.19472	
553	5.520	274.54709	150.38930	292.47937	277.17786	147.33682	157.19421	
554	5.530	274.54651	150.38951	292.47955	277.17648	147.33733	157.19461	
555	5.540	274.54462	150.38989	292.47992	277.17218	147.33888	157.19580	
556	5.550	274.54166	150.39067	292.48059	277.16559	147.34123	157.19765	
557	5.560	274.53766	150.39197	292.48163	277.15735	147.34412	157.20006	
558	5.570	274.53281	150.39366	292.48291	277.14810	147.34732	157.20280	
559	5.580	274.52725	150.39531	292.48425	277.13873	147.35051	157.20566	
560	5.590	274.52145	150.39653	292.48550	277.13034	147.35336	157.20824	
561	5.600	274.51611	150.39716	292.48645	277.12369	147.35562	157.21030	
562	5.610	274.51205	150.39723	292.48703	277.11899	147.35724	157.21172	
563	5.620	274.50986	150.39682	292.48715	277.11615	147.35825	157.21254	
564	5.630	274.50992	150.39604	292.48688	277.11499	147.35870	157.21283	
565	5.640	274.51242	150.39505	292.48615	277.11511	147.35876	157.21268	
566	5.650	274.51740	150.39398	292.48511	277.11594	147.35861	157.21228	
567	5.660	274.52429	150.39297	292.48380	277.11682	147.35847	157.21184	
568	5.670	274.53226	150.39220	292.48245	277.11749	147.35840	157.21146	
569	5.680	274.54019	150.39192	292.48129	277.11807	147.35832	157.21112	
570	5.690	274.54678	150.39238	292.48059	277.11856	147.35826	157.21086	
571	5.700	274.55093	150.39357	292.48047	277.11862	147.35829	157.21078	
572	5.710	274.55197	150.39523	292.48096	277.11795	147.35852	157.21100	
573	5.720	274.54984	150.39685	292.48184	277.11658	147.35892	157.21150	
574	5.730	274.54489	150.39790	292.48291	277.11475	147.35936	157.21225	
575	5.740	274.53787	150.39809	292.48389	277.11282	147.35982	157.21307	
576	5.750	274.52979	150.39749	292.48474	277.11111	147.36023	157.21381	
577	5.760	274.52170	150.39651	292.48547	277.10995	147.36052	157.21431	
578	5.770	274.51468	150.39552	292.48602	277.10934	147.36072	157.21455	
579	5.780	274.50943	150.39481	292.48648	277.10910	147.36090	157.21457	
580	5.790	274.50607	150.39447	292.48679	277.10883	147.36119	157.21449	
581	5.800	274.50449	150.39461	292.48706	277.10803	147.36174	157.21449	
582	5.810	274.50433	150.39514	292.48724	277.10629	147.36264	157.21472	
583	5.820	274.50528	150.39597	292.48737	277.10349	147.36391	157.21529	
584	5.830	274.50674	150.39691	292.48743	277.10001	147.36531	157.21606	
585	5.840	274.50827	150.39777	292.48743	277.09702	147.36633	157.21680	
586	5.850	274.50937	150.39835	292.48730	277.09576	147.36646	157.21713	
587	5.860	274.50967	150.39847	292.48712	277.09686	147.36546	157.21686	
588	5.870	274.50909	150.39807	292.48688	277.10004	147.36349	157.21593	
589	5.880	274.50790	150.39720	292.48663	277.10483	147.36078	157.21443	
590	5.890	274.50662	150.39607	292.48645	277.11084	147.35754	157.21248	
591	5.900	274.50583	150.39490	292.48627	277.11786	147.35408	157.21019	
592	5.910	274.50574	150.39380	292.48608	277.12549	147.35077	157.20775	
593	5.920	274.50641	150.39282	292.48578	277.13339	147.34789	157.20535	
594	5.930	274.50760	150.39203	292.48547	277.14102	147.34563	157.20317	
595	5.940	274.50894	150.39148	292.48520	277.14780	147.34402	157.20134	
596	5.950	274.51001	150.39127	292.48505	277.15329	147.34305	157.19994	
597	5.960	274.51071	150.39142	292.48505	277.15732	147.34258	157.19897	
598	5.970	274.51120	150.39182	292.48514	277.15979	147.34253	157.19844	
599	5.980	274.51178	150.39240	292.48526	277.16074	147.34283	157.19829	
600	5.990	274.51257	150.39302	292.48538	277.16058	147.34332	157.19843	
601	6.000	274.51364	150.39355	292.48541	277.15973	147.34387	157.19873	
602	6.010	274.51483	150.39380	292.48535	277.15854	147.34438	157.19913	
603	6.020	274.51569	150.39365	292.48517	277.15720	147.34480	157.19955	
604	6.030	274.51569	150.39314	292.48499	277.15579	147.34514	157.20001	
605	6.040	274.51459	150.39252	292.48489	277.15424	147.34544	157.20050	
606	6.050	274.51282	150.39200	292.48492	277.15247	147.34578	157.20107	
607	6.060	274.51102	150.39166	292.48505	277.15036	147.34619	157.20168	
608	6.070	274.50989	150.39153	292.48514	277.14816	147.34668	157.20229	
609	6.080	274.50992	150.39162	292.48517	277.14618	147.34717	157.20279	
610	6.090	274.51169	150.39192	292.48505	277.14465	147.34766	157.20316	
